<svg width="107" height="34" viewBox="0 0 107 34" fill="none" xmlns="http://www.w3.org/2000/svg">
<circle cx="13.8636" cy="13.8636" r="13.8636" fill="#8D86C9" fill-opacity="0.5"/>
<circle cx="17.5606" cy="16.6363" r="13.8636" fill="#725AC1"/>
<path d="M15.1058 22.0887C14.9875 22.0887 14.9284 22.0197 14.9284 21.8817C14.9284 21.7831 14.958 21.6648 15.0171 21.5268C15.1748 21.1916 15.3523 20.7184 15.5495 20.1072C15.7664 19.4959 16.0325 18.9734 16.348 18.5396L17.8268 15.4933C17.7085 15.4933 17.5902 15.5229 17.4719 15.5821C17.3733 15.6412 17.324 15.6905 17.324 15.7299C17.324 15.8088 17.2156 15.8877 16.9987 15.9665C16.7818 16.0454 16.6635 16.0947 16.6438 16.1144C16.348 16.1933 16.072 16.282 15.8156 16.3806C15.6185 16.5975 15.4213 16.8144 15.2241 17.0313C15.0467 17.2482 14.8791 17.4651 14.7213 17.6819C14.7016 17.7017 14.6819 17.7115 14.6622 17.7115C14.4847 17.9087 14.3369 18.0566 14.2186 18.1552C14.1003 18.2537 13.9721 18.3425 13.8341 18.4213C13.7552 18.4805 13.6763 18.5002 13.5975 18.4805C13.4989 18.4411 13.489 18.4016 13.5679 18.3622C13.6665 18.3227 13.8242 18.1847 14.0411 17.9481C14.258 17.7115 14.4256 17.5341 14.5439 17.4158C14.6425 17.3566 14.6721 17.3566 14.6326 17.4158C14.6129 17.4749 14.6425 17.4651 14.7213 17.3862L15.4607 16.4398L15.4903 16.4102C15.3917 16.351 15.3424 16.1933 15.3424 15.937C15.3424 15.7398 15.3819 15.5821 15.4607 15.4638C15.4607 15.444 15.4805 15.4342 15.5199 15.4342L16.141 15.2567C16.2001 15.2567 16.2396 15.2469 16.2593 15.2272C16.2987 15.1877 16.3382 15.1384 16.3776 15.0793C16.4367 15.0004 16.5057 14.9018 16.5846 14.7835L16.9395 14.3103L17.1761 13.985C17.1761 13.9258 17.2156 13.8568 17.2944 13.7779C17.393 13.6794 17.4719 13.6103 17.531 13.5709C17.6099 13.4526 17.6592 13.3639 17.6789 13.3047C17.7184 13.2259 17.7775 13.1273 17.8564 13.009C17.8564 12.9893 17.886 12.9794 17.9451 12.9794C18.0043 12.9597 18.0338 12.94 18.0338 12.9202C18.0535 12.7231 18.0831 12.6343 18.1226 12.6541C18.1817 12.6541 18.2113 12.6245 18.2113 12.5653C18.2113 12.5062 18.2507 12.4569 18.3296 12.4175L18.4775 12.24C18.4775 12.2203 18.507 12.1808 18.5662 12.1217V12.0921C18.5662 12.0527 18.5662 12.0034 18.5662 11.9442C18.5662 11.8851 18.5859 11.8259 18.6253 11.7668C18.6648 11.7274 18.6944 11.7076 18.7141 11.7076C18.7338 11.7076 18.7436 11.7076 18.7436 11.7076C18.7436 11.6879 18.7338 11.6781 18.7141 11.6781C18.7141 11.6583 18.7141 11.6485 18.7141 11.6485C18.7141 11.5696 18.7535 11.5203 18.8324 11.5006C18.9112 11.4809 18.9507 11.4513 18.9507 11.4119C18.9901 11.1358 19.2267 10.9288 19.6605 10.7908C20.0943 10.6528 20.4788 10.5838 20.814 10.5838C21.1491 10.5838 21.3167 10.6331 21.3167 10.7316C21.3167 10.7711 21.2576 10.8401 21.1393 10.9387C21.0801 10.9584 20.9815 11.0471 20.8435 11.2048C20.7055 11.3429 20.5773 11.5105 20.459 11.7076L20.2224 12.0625C20.2027 12.102 20.1731 12.1513 20.1337 12.2104C20.114 12.2499 20.0844 12.2893 20.045 12.3287C19.907 12.5653 19.7196 12.9005 19.483 13.3343C19.2662 13.7484 19.0295 14.2117 18.7732 14.7244L19.5422 14.6356C19.6013 14.6356 19.6211 14.6455 19.6013 14.6652C19.6013 14.6849 19.6309 14.6849 19.6901 14.6652C19.7887 14.6652 19.8577 14.6554 19.8971 14.6356C19.9365 14.5962 20.0055 14.5666 20.1041 14.5469C20.2619 14.5272 20.4393 14.5173 20.6365 14.5173C20.8534 14.4976 21.021 14.4878 21.1393 14.4878C21.2182 14.4878 21.3167 14.4878 21.435 14.4878C21.5533 14.4878 21.6421 14.4976 21.7012 14.5173C21.7407 14.5173 21.7505 14.537 21.7308 14.5765C21.7308 14.5962 21.7407 14.6061 21.7604 14.6061C21.7998 14.6061 21.8294 14.5962 21.8491 14.5765C21.8885 14.5568 21.928 14.5469 21.9674 14.5469C21.9871 14.5272 22.0167 14.5272 22.0561 14.5469C22.1153 14.5469 22.1547 14.5469 22.1744 14.5469L22.4702 14.6356C22.5885 14.6554 22.6476 14.7244 22.6476 14.8427C22.6674 14.961 22.6181 15.0004 22.4998 14.961C22.4209 14.9215 22.3519 14.9018 22.2927 14.9018H21.5533C21.4153 14.9018 21.2872 14.9018 21.1689 14.9018C21.0506 14.9018 20.9323 14.9117 20.814 14.9314C20.7745 14.9511 20.7548 14.9314 20.7548 14.8722C20.7745 14.8131 20.7647 14.7835 20.7252 14.7835C20.7055 14.7835 20.6759 14.8131 20.6365 14.8722C20.5971 14.9117 20.5675 14.9314 20.5478 14.9314L20.3999 15.0201C20.0844 15.099 19.7492 15.1877 19.3943 15.2863C19.0394 15.3652 18.6944 15.4539 18.3592 15.5525C18.0634 16.1637 17.7775 16.7454 17.5015 17.2975C17.2451 17.8298 17.048 18.2439 16.91 18.5396C16.8705 18.6579 16.8508 18.7269 16.8508 18.7467C16.8508 18.9044 16.9395 18.9833 17.117 18.9833C17.2353 18.9833 17.3536 18.9537 17.4719 18.8945L17.7676 18.7762C18.2409 18.3425 18.7338 17.9777 19.2464 17.6819C19.2662 17.6819 19.276 17.6819 19.276 17.6819C19.2957 17.6622 19.3154 17.6524 19.3352 17.6524C19.3943 17.6524 19.4337 17.6918 19.4535 17.7707C19.4732 17.8298 19.4535 17.8791 19.3943 17.9185C18.8225 18.234 18.2902 18.6382 17.7972 19.1312C17.7775 19.1706 17.7578 19.21 17.7381 19.2495C17.7184 19.2889 17.6888 19.3283 17.6493 19.3678C17.6099 19.4072 17.5508 19.4762 17.4719 19.5748C17.4127 19.6734 17.3832 19.7325 17.3832 19.7522C17.3634 19.8114 17.3339 19.8311 17.2944 19.8114C17.2747 19.7917 17.2156 19.8213 17.117 19.9001C17.0973 19.9198 17.0775 19.9593 17.0578 20.0184C17.0578 20.0776 17.048 20.1269 17.0283 20.1663C16.9888 20.2255 16.9494 20.2747 16.91 20.3142C16.8705 20.3339 16.8508 20.3536 16.8508 20.3733C16.8311 20.4522 16.7916 20.5015 16.7325 20.5212C16.6931 20.5212 16.6536 20.5409 16.6142 20.5804C16.5945 20.5804 16.5846 20.5902 16.5846 20.6099C16.5846 20.7874 16.5649 20.8663 16.5255 20.8465C16.486 20.8268 16.4565 20.8465 16.4367 20.9057C16.3579 20.9846 16.2987 21.024 16.2593 21.024C16.141 21.0634 16.0917 21.093 16.1114 21.1127C16.1508 21.1324 16.1804 21.1522 16.2001 21.1719C16.2396 21.1719 16.21 21.2015 16.1114 21.2606C16.072 21.2803 16.0325 21.3395 15.9931 21.4381C15.9537 21.5169 15.9142 21.5761 15.8748 21.6155C15.8156 21.6549 15.7565 21.6845 15.6973 21.7042C15.6382 21.724 15.5889 21.7634 15.5495 21.8225C15.372 22 15.2241 22.0887 15.1058 22.0887ZM16.7916 15.1384C16.8705 15.1187 16.9395 15.099 16.9987 15.0793C17.0775 15.0596 17.1564 15.03 17.2353 14.9905L18.1226 14.8427C18.3592 14.3695 18.5662 13.9455 18.7436 13.5709C18.9211 13.1766 19.0493 12.8907 19.1281 12.7132C19.1281 12.7132 19.1084 12.7034 19.069 12.6836C19.0493 12.6442 19.0394 12.6048 19.0394 12.5653C19 12.5456 18.9507 12.516 18.8915 12.4766C18.8521 12.4372 18.8127 12.4076 18.7732 12.3879L18.507 12.6541L18.1817 13.0977C18.1817 13.1174 18.1521 13.1371 18.093 13.1568C18.0535 13.1568 18.0338 13.1667 18.0338 13.1864C18.0338 13.2456 18.0043 13.3047 17.9451 13.3639C17.9057 13.423 17.8662 13.4427 17.8268 13.423L17.7085 13.7188C17.7085 13.7779 17.6789 13.8272 17.6198 13.8667L17.4127 14.1328C17.4127 14.1526 17.4029 14.1723 17.3832 14.192C17.3832 14.192 17.3832 14.2117 17.3832 14.2512C17.3634 14.2906 17.3339 14.3399 17.2944 14.399C17.255 14.4582 17.2057 14.5173 17.1466 14.5765C17.1268 14.5765 17.117 14.5863 17.117 14.6061C17.117 14.6061 17.1071 14.6061 17.0874 14.6061L16.9987 14.7835C16.9198 14.8229 16.8705 14.8427 16.8508 14.8427L16.8212 14.9018C16.8212 15.0201 16.8114 15.099 16.7916 15.1384Z" fill="#0D0D0C"/>
<path d="M46.3884 24.159C45.5208 24.159 44.6828 23.7844 43.8744 23.0352C43.7561 22.9957 43.6575 22.907 43.5787 22.769C43.4998 22.6507 43.4209 22.5521 43.3421 22.4732C43.204 22.4338 43.1153 22.3746 43.0759 22.2958C43.0364 22.2169 42.997 22.1183 42.9576 22C42.9576 21.9803 42.9379 21.9507 42.8984 21.9113C42.8787 21.8916 42.859 21.8718 42.8393 21.8521C42.8196 21.8324 42.7998 21.8127 42.7801 21.793C42.7604 21.793 42.7505 21.793 42.7505 21.793C42.7703 21.7733 42.7801 21.7634 42.7801 21.7634C42.7013 21.6057 42.652 21.4972 42.6322 21.4381C42.6125 21.3592 42.5337 21.2606 42.3956 21.1423C42.3562 21.1029 42.3168 21.0437 42.2773 20.9648C42.2576 20.8663 42.2379 20.7874 42.2182 20.7282C42.0013 20.2156 41.8041 19.6931 41.6267 19.1607C41.4689 18.6086 41.3901 18.0467 41.3901 17.4749C41.3901 17.2777 41.4492 17.1299 41.5675 17.0313C41.6858 16.9327 41.814 16.8834 41.952 16.8834C42.2083 16.8834 42.3759 17.0116 42.4548 17.2679C42.4942 17.3467 42.5337 17.4355 42.5731 17.5341C42.6322 17.6129 42.6618 17.6918 42.6618 17.7707V18.0664C42.6618 18.1847 42.6914 18.2143 42.7505 18.1552C42.8294 18.0763 42.8787 18.0861 42.8984 18.1847C42.9379 18.3227 42.9674 18.4115 42.9872 18.4509C43.0069 18.4706 43.0857 18.5199 43.2238 18.5988C43.2632 18.6777 43.3125 18.7565 43.3716 18.8354C43.4308 18.9143 43.4899 18.9931 43.5491 19.072V19.1312C43.5491 19.2495 43.5885 19.3382 43.6674 19.3973C43.7463 19.4368 43.835 19.4861 43.9336 19.5452L44.3181 19.9593C44.2983 19.9987 44.2885 20.0381 44.2885 20.0776C44.2885 20.1959 44.3476 20.2747 44.4659 20.3142C44.604 20.3536 44.7223 20.3931 44.8208 20.4325C44.8406 20.4522 44.949 20.5508 45.1462 20.7282C45.3631 20.886 45.5109 20.9846 45.5898 21.024C45.6884 21.0832 45.7968 21.1522 45.9152 21.231C46.0335 21.2902 46.1518 21.3395 46.2701 21.3789C46.3095 21.3789 46.3489 21.3986 46.3884 21.4381C46.7433 21.5761 47.0686 21.6451 47.3644 21.6451C47.6404 21.6451 47.9559 21.5859 48.3108 21.4676C48.3699 21.4479 48.4192 21.4381 48.4587 21.4381C48.5178 21.4183 48.5573 21.4085 48.577 21.4085C48.6361 21.4085 48.6657 21.4282 48.6657 21.4676C48.6657 21.5662 48.577 21.6648 48.3995 21.7634C48.3995 21.8028 48.3699 21.8225 48.3108 21.8225C48.2319 21.8423 48.1531 21.8718 48.0742 21.9113C47.9953 21.9507 47.9164 21.9606 47.8376 21.9408C47.739 21.9408 47.6601 21.931 47.601 21.9113C47.5418 21.8916 47.4629 21.9211 47.3644 22C47.108 21.9803 46.8221 21.9211 46.5067 21.8225C46.1912 21.724 45.925 21.6155 45.7081 21.4972C45.6884 21.3592 45.5997 21.2902 45.4419 21.2902C45.2842 21.2705 45.156 21.2212 45.0575 21.1423C44.9786 21.0437 44.9096 20.9353 44.8504 20.817C44.811 20.6987 44.7124 20.6888 44.5547 20.7874C44.4758 20.7085 44.4068 20.6494 44.3476 20.6099C44.2885 20.5508 44.1998 20.5212 44.0815 20.5212C44.042 20.4818 43.9829 20.4423 43.904 20.4029C43.8448 20.3635 43.8251 20.3043 43.8448 20.2255C43.766 20.1663 43.6082 20.0677 43.3716 19.9297C43.1547 19.772 43.0266 19.6734 42.9872 19.6339C42.8097 19.4368 42.6125 19.2692 42.3956 19.1312L42.3069 19.072C42.5632 19.841 42.8688 20.5902 43.2238 21.3198C43.5984 22.0493 44.1406 22.6408 44.8504 23.0943C45.1856 23.2915 45.4912 23.4492 45.7673 23.5675C46.063 23.7055 46.3489 23.7745 46.625 23.7745C47.1376 23.7745 47.6798 23.5182 48.2516 23.0056C48.7446 22.5521 49.1882 22.0099 49.5825 21.3789C49.9769 20.7282 50.3318 20.048 50.6473 19.3382C50.9627 18.6284 51.2388 17.9678 51.4754 17.3566C51.5148 17.3172 51.5444 17.2876 51.5641 17.2679C51.5838 17.2482 51.6036 17.2284 51.6233 17.2087C51.6824 17.0707 51.7219 16.913 51.7416 16.7355C51.781 16.5383 51.8204 16.3707 51.8599 16.2327C51.9585 16.1144 52.0472 15.9764 52.1261 15.8187C52.2246 15.6412 52.2739 15.4736 52.2739 15.3159L52.3331 15.168C52.3725 15.1483 52.3627 15.1187 52.3035 15.0793C52.2444 15.0398 52.2838 15.0103 52.4218 14.9905C52.5598 14.7737 52.6387 14.5568 52.6584 14.3399C52.6979 14.1033 52.757 13.9357 52.8359 13.8371C52.895 13.7385 52.9542 13.6498 53.0133 13.5709C53.0725 13.492 53.0823 13.3935 53.0429 13.2752C53.0626 13.1963 53.1218 13.009 53.2204 12.7132C53.3387 12.3977 53.4668 12.0527 53.6048 11.6781C53.7429 11.3034 53.8612 10.9781 53.9598 10.7021C54.0583 10.4063 54.1076 10.2387 54.1076 10.1993L54.433 9.34157C53.8809 9.36129 53.3091 9.39087 52.7176 9.4303C52.1458 9.46974 51.5838 9.55846 51.0318 9.69648C51.0515 9.67677 51.0416 9.65705 51.0022 9.63733C50.9627 9.5979 50.9332 9.57818 50.9135 9.57818L50.8839 9.5486C50.805 9.52889 50.7853 9.54861 50.8247 9.60776C50.8839 9.64719 50.874 9.68663 50.7952 9.72606C50.6177 9.74578 50.4107 9.79507 50.1741 9.87394C49.9572 9.93309 49.76 9.96267 49.5825 9.96267C49.5037 9.98238 49.415 9.99224 49.3164 9.99224C49.2178 9.97252 49.1192 9.96267 49.0206 9.96267C48.7248 9.98238 48.4291 10.0613 48.1333 10.1993C47.8573 10.3373 47.5714 10.4556 47.2756 10.5542L46.7433 10.7021C46.5264 10.8006 46.2898 10.8697 46.0335 10.9091C45.7771 10.9485 45.5405 11.0175 45.3236 11.1161L45.3532 11.1457C45.2743 11.2048 45.1758 11.2443 45.0575 11.264C44.9392 11.2837 44.8307 11.3133 44.7321 11.3527C44.4955 11.4316 44.2491 11.5302 43.9927 11.6485C43.7561 11.7471 43.5097 11.8358 43.2533 11.9147C43.1153 11.9541 42.9773 11.9935 42.8393 12.033C42.721 12.0527 42.5829 12.0921 42.4252 12.1513C42.3463 12.171 42.2773 12.1907 42.2182 12.2104C42.159 12.2104 42.09 12.2104 42.0112 12.2104C41.8337 12.2104 41.676 12.171 41.5379 12.0921C41.4591 12.0527 41.3408 11.9442 41.183 11.7668C41.045 11.5696 40.9267 11.3724 40.8281 11.1753C40.7295 10.9584 40.6901 10.8006 40.7098 10.7021C40.7295 10.6429 40.8577 10.5739 41.0943 10.495C41.3309 10.3964 41.6069 10.3077 41.9224 10.2288C42.2379 10.1303 42.5238 10.0514 42.7801 9.99224C43.0562 9.91337 43.2336 9.86408 43.3125 9.84436C43.3519 9.82465 43.4604 9.80493 43.6378 9.78521C43.8153 9.74578 43.9139 9.76549 43.9336 9.84436C43.9533 9.8838 43.9336 9.94295 43.8744 10.0218C43.8153 10.081 43.766 10.1303 43.7265 10.1697C43.7265 10.1894 43.697 10.2288 43.6378 10.288C43.5984 10.3472 43.5984 10.3669 43.6378 10.3472L44.673 10.081C44.8307 10.0415 45.018 10.0317 45.2349 10.0514C45.4715 10.0514 45.649 10.012 45.7673 9.93309C45.8067 9.89366 45.8264 9.85422 45.8264 9.81479C45.8461 9.77535 45.8856 9.75564 45.9447 9.75564C46.0827 9.7162 46.3095 9.67677 46.625 9.63733C46.9602 9.5979 47.1672 9.53875 47.2461 9.45988C47.4038 9.42044 47.5714 9.40073 47.7488 9.40073C47.9263 9.38101 48.084 9.33172 48.2221 9.25285C48.2812 9.23313 48.4685 9.1937 48.784 9.13454C49.1192 9.07539 49.4938 9.01624 49.9079 8.95709C50.3417 8.87822 50.7261 8.81907 51.0613 8.77964C51.3965 8.72048 51.5937 8.69091 51.6528 8.69091H51.6824C51.7613 8.69091 51.8402 8.68105 51.919 8.66133C51.9979 8.64162 52.0768 8.63176 52.1556 8.63176C52.3134 8.63176 52.3922 8.70077 52.3922 8.83879C52.412 8.8585 52.4613 8.86836 52.5401 8.86836C52.7176 8.86836 52.8556 8.81907 52.9542 8.72048C53.0331 8.70077 53.0922 8.67119 53.1316 8.63176C53.1908 8.59232 53.2598 8.56275 53.3387 8.54303C53.5556 8.5036 53.7823 8.49374 54.0189 8.51345C54.2752 8.51345 54.502 8.51345 54.6992 8.51345C54.8372 8.2177 54.9851 8.02052 55.1428 7.92194C55.3005 7.80364 55.5371 7.74448 55.8526 7.74448C56.0695 7.74448 56.2075 7.85293 56.2667 8.06982C56.3258 8.26699 56.3554 8.44444 56.3554 8.60218C56.454 8.60218 56.5821 8.60218 56.7399 8.60218C56.8976 8.58246 57.0652 8.57261 57.2427 8.57261C57.4201 8.57261 57.5877 8.58246 57.7455 8.60218C57.9229 8.6219 58.0609 8.65147 58.1595 8.69091C58.1792 8.63176 58.2285 8.61204 58.3074 8.63176C58.406 8.63176 58.475 8.64162 58.5144 8.66133C58.6722 8.7402 58.8398 8.77964 59.0172 8.77964C59.2144 8.75992 59.4017 8.78949 59.5792 8.86836C59.7566 8.92751 59.9242 8.99652 60.0819 9.07539C60.2397 9.15426 60.4073 9.22327 60.5847 9.28242C60.7425 9.32186 60.8608 9.38101 60.9396 9.45988C61.0382 9.53875 61.1565 9.62747 61.2945 9.72606C61.4523 9.84436 61.5509 9.95281 61.5903 10.0514C61.5903 10.0514 61.6002 10.0908 61.6199 10.1697C61.6396 10.2288 61.6199 10.2486 61.5607 10.2288C61.541 10.2288 61.5114 10.2288 61.472 10.2288C61.4523 10.2091 61.4326 10.2091 61.4128 10.2288C61.4128 10.3077 61.4424 10.3767 61.5016 10.4359C61.541 10.4556 61.5804 10.4556 61.6199 10.4359C61.679 10.4162 61.7185 10.3964 61.7382 10.3767C61.8171 10.3767 61.8565 10.4162 61.8565 10.495C61.8762 10.5739 61.8959 10.6528 61.9156 10.7316C61.9748 10.9682 62.0044 11.2048 62.0044 11.4415C62.0044 11.6978 61.9354 11.9837 61.7973 12.2992C61.679 12.6146 61.5114 12.8907 61.2945 13.1273C61.0777 13.3442 60.8213 13.4526 60.5256 13.4526C60.427 13.4526 60.3481 13.4427 60.289 13.423C60.0721 13.3639 59.9636 13.3047 59.9636 13.2456C59.9636 13.1864 60.0622 13.0878 60.2594 12.9498C60.3974 12.8512 60.5157 12.7428 60.6143 12.6245C60.7129 12.4865 60.8016 12.3484 60.8805 12.2104C61.0185 12.1118 61.127 11.9147 61.2058 11.6189C61.2847 11.3232 61.3241 11.0471 61.3241 10.7908C61.3241 10.5936 61.2945 10.4359 61.2354 10.3176C61.2157 10.3176 61.127 10.2091 60.9692 9.99224C60.8312 9.77535 60.6636 9.65705 60.4664 9.63733C60.3678 9.5979 60.2594 9.55846 60.1411 9.51903C60.0425 9.4796 59.9439 9.45002 59.8453 9.4303C59.7665 9.35143 59.6087 9.29228 59.3721 9.25285C59.1552 9.21341 58.9285 9.18384 58.6919 9.16412C58.4553 9.1444 58.2778 9.13454 58.1595 9.13454C58.0609 9.13454 57.8835 9.1444 57.6272 9.16412C57.3708 9.16412 57.1145 9.17398 56.8582 9.1937C56.6019 9.1937 56.4244 9.1937 56.3258 9.1937C56.1484 9.70634 55.8427 10.012 55.409 10.1105C55.3893 10.1697 55.3104 10.3767 55.1724 10.7316C55.0343 11.0865 54.8865 11.4809 54.7287 11.9147C54.571 12.3287 54.4231 12.7034 54.2851 13.0385C54.1668 13.354 54.0978 13.5315 54.0781 13.5709C54.0189 13.6498 53.9598 13.7286 53.9006 13.8075C53.8415 13.8864 53.802 13.9751 53.7823 14.0737C53.7626 14.2709 53.6739 14.5469 53.5161 14.9018C53.3781 15.2567 53.2204 15.6116 53.0429 15.9665C52.8852 16.3017 52.757 16.5778 52.6584 16.7947C52.5401 16.8735 52.4415 16.9425 52.3627 17.0017C52.2838 17.0411 52.3035 17.1299 52.4218 17.2679C52.3627 17.4059 52.3035 17.4749 52.2444 17.4749C52.1852 17.4552 52.1063 17.4355 52.0078 17.4158C52.0275 17.5143 52.0571 17.5834 52.0965 17.6228C52.1359 17.6425 52.1655 17.7017 52.1852 17.8002C52.0275 18.1552 51.8303 18.5889 51.5937 19.1016C51.3571 19.5945 51.1205 19.9888 50.8839 20.2846C50.7459 20.3438 50.6374 20.4029 50.5585 20.4621C50.4797 20.5212 50.4797 20.6395 50.5585 20.817C50.5191 20.8564 50.4895 20.9057 50.4698 20.9648C50.4501 21.024 50.4304 21.0832 50.4107 21.1423L50.1741 21.4972C50.0952 21.5564 50.0163 21.6254 49.9375 21.7042C49.8586 21.7634 49.8192 21.862 49.8192 22C49.7403 22.1183 49.6713 22.207 49.6121 22.2662C49.4938 22.3056 49.3952 22.3549 49.3164 22.4141C49.2375 22.4732 49.1981 22.5817 49.1981 22.7394C48.8037 23.1732 48.3601 23.5182 47.8672 23.7745C47.3939 24.0309 46.901 24.159 46.3884 24.159ZM63.7831 22.0887C63.6648 22.0887 63.6056 22.0197 63.6056 21.8817C63.6056 21.7831 63.6352 21.6648 63.6943 21.5268C63.8521 21.1916 64.0295 20.7184 64.2267 20.1072C64.4436 19.4959 64.7098 18.9734 65.0253 18.5396C65.2421 18.1059 65.4393 17.6819 65.6168 17.2679C65.8139 16.8341 66.0013 16.4003 66.1787 15.9665C66.1787 15.9665 66.159 15.9567 66.1196 15.937C66.0801 15.8975 66.0604 15.8581 66.0604 15.8187C65.9618 15.7398 65.8435 15.6314 65.7055 15.4933C65.5675 15.3356 65.5576 15.1779 65.6759 15.0201C65.7154 14.9807 65.7351 14.961 65.7351 14.961C65.7548 14.961 65.7646 14.961 65.7646 14.961C65.7646 14.9413 65.7548 14.9314 65.7351 14.9314C65.7351 14.9314 65.7351 14.9215 65.7351 14.9018L65.7055 14.8722C65.6858 14.8722 65.6661 14.8722 65.6463 14.8722C65.6463 14.8525 65.6365 14.8427 65.6168 14.8427C65.5379 14.8427 65.4492 14.8624 65.3506 14.9018C65.252 14.9215 65.1534 14.9314 65.0548 14.9314C64.9365 14.9314 64.7788 14.9807 64.5816 15.0793C64.3844 15.1581 64.207 15.2272 64.0493 15.2863C63.9704 15.306 63.9211 15.3159 63.9014 15.3159C63.9014 15.2962 63.8619 15.306 63.7831 15.3455C63.7634 15.3652 63.7634 15.3356 63.7831 15.2567C63.8225 15.1581 63.8422 15.0891 63.8422 15.0497C63.8422 15.03 63.8324 15.0201 63.8126 15.0201C63.7732 15.0201 63.6943 15.0793 63.576 15.1976C63.4577 15.2962 63.3789 15.3553 63.3394 15.375C63.3197 15.3947 63.3099 15.4243 63.3099 15.4638C63.3296 15.5032 63.3394 15.5426 63.3394 15.5821C63.3394 15.6412 63.2901 15.7102 63.1916 15.7891C63.093 15.8482 63.024 15.8975 62.9845 15.937C62.9057 15.9961 62.8071 16.0356 62.6888 16.0553C62.5902 16.0553 62.4916 16.0947 62.393 16.1736C62.2747 16.2524 62.2156 16.3116 62.2156 16.351C62.2353 16.3905 62.1761 16.4595 62.0381 16.5581C61.8606 16.6961 61.6142 16.9031 61.2987 17.1792C61.0029 17.4552 60.7762 17.7017 60.6185 17.9185C60.2438 18.372 59.8988 18.8945 59.5833 19.4861C59.2876 20.0776 59.1397 20.5409 59.1397 20.8761C59.1397 21.1324 59.2481 21.2606 59.465 21.2606C59.5044 21.2606 59.5439 21.2606 59.5833 21.2606C59.6227 21.2409 59.672 21.2212 59.7312 21.2015L60.5002 20.7578L60.6776 20.7282V20.6987L60.7959 20.7874C60.8156 20.7677 60.8058 20.7381 60.7663 20.6987C60.7466 20.6395 60.7466 20.6099 60.7663 20.6099C60.7861 20.6099 60.7959 20.6198 60.7959 20.6395C60.8156 20.6395 60.8354 20.6395 60.8551 20.6395L60.9142 20.5508C60.9142 20.5508 60.9438 20.5606 61.0029 20.5804C61.0818 20.5804 61.141 20.5606 61.1804 20.5212C61.2396 20.5015 61.2494 20.4719 61.21 20.4325C61.1903 20.3931 61.1607 20.3635 61.1213 20.3438L61.3283 20.1663C61.348 20.1269 61.4269 20.0874 61.5649 20.048C61.9001 19.8311 62.1761 19.5748 62.393 19.279C62.6296 18.9636 62.8958 18.6777 63.1916 18.4213H63.2211L63.576 18.0664L63.5465 17.9777L63.9309 17.5341H63.9901C64.0098 17.4946 64.0493 17.4453 64.1084 17.3862C64.1873 17.327 64.2366 17.2777 64.2563 17.2383C64.2957 17.2186 64.3844 17.12 64.5225 16.9425C64.6802 16.7454 64.8281 16.5876 64.9661 16.4693C65.1238 16.351 65.2126 16.2919 65.2323 16.2919C65.252 16.2919 65.2619 16.3017 65.2619 16.3215C65.2619 16.3806 65.2323 16.4693 65.1731 16.5876C65.1337 16.7059 65.0943 16.7848 65.0548 16.8242C64.9168 17.0411 64.7394 17.2876 64.5225 17.5636C64.3056 17.82 64.1774 17.9777 64.138 18.0368C63.9014 18.2932 63.6155 18.6382 63.2803 19.072C62.9451 19.4861 62.5803 19.9001 62.186 20.3142C61.7916 20.7282 61.3973 21.0832 61.0029 21.3789C60.6283 21.6549 60.2734 21.793 59.9382 21.793C59.6227 21.793 59.2876 21.6944 58.9326 21.4972C58.5777 21.3 58.4003 20.9254 58.4003 20.3733C58.4003 20.1959 58.42 19.9987 58.4594 19.7818C58.5186 19.5452 58.6073 19.2987 58.7256 19.0424C58.7256 19.0424 58.7453 19.0227 58.7848 18.9833C58.8242 18.9241 58.8538 18.9044 58.8735 18.9241C58.9129 18.865 58.9228 18.8058 58.9031 18.7467C58.9031 18.6678 58.9031 18.6185 58.9031 18.5988L58.9622 18.5396C59.0017 18.3227 59.1495 18.1256 59.4059 17.9481C59.6622 17.7707 59.8002 17.6326 59.8199 17.5341C59.8396 17.5143 59.8495 17.4848 59.8495 17.4453L59.9678 17.0608V16.9425H60.0861L60.1748 16.8242L60.2044 16.7651C60.165 16.7454 60.1748 16.7158 60.234 16.6764C60.3128 16.6172 60.3523 16.5876 60.3523 16.5876C60.372 16.5482 60.3917 16.5186 60.4114 16.4989C60.4509 16.4792 60.4804 16.4595 60.5002 16.4398H60.7072C60.7466 16.3806 60.7269 16.351 60.648 16.351C60.5692 16.351 60.5297 16.351 60.5297 16.351C60.5297 16.3313 60.5297 16.3215 60.5297 16.3215C60.5495 16.3017 60.5593 16.282 60.5593 16.2623L60.8846 15.9961C60.9832 15.9173 61.0818 15.8482 61.1804 15.7891C61.279 15.7299 61.3677 15.6609 61.4466 15.5821C61.5057 15.5821 61.5156 15.6116 61.4762 15.6708C61.4959 15.7102 61.5156 15.7102 61.5353 15.6708C61.5747 15.6314 61.5945 15.6116 61.5945 15.6116L61.7423 15.5821V15.5525C61.7423 15.5131 61.7522 15.4539 61.7719 15.375C61.7916 15.2962 61.8015 15.2469 61.8015 15.2272C62.2156 14.9117 62.6493 14.6356 63.1028 14.399C63.5563 14.1427 64 14.0145 64.4337 14.0145C64.9464 14.0145 65.4097 14.2117 65.8238 14.6061L65.9717 14.6948C65.9914 14.6948 66.0013 14.6849 66.0013 14.6652C66.0407 14.3892 66.2674 14.1821 66.6815 14.0441C67.1153 13.9061 67.4998 13.8371 67.8349 13.8371C68.1899 13.8371 68.3673 13.8864 68.3673 13.985C68.3673 14.0244 68.3082 14.0934 68.1899 14.192C68.1307 14.2314 68.0321 14.3202 67.8941 14.4582C67.7561 14.5962 67.6181 14.7638 67.48 14.961C67.4603 15.0201 67.4307 15.0793 67.3913 15.1384C67.3519 15.1976 67.3124 15.2567 67.273 15.3159C67.2533 15.3553 67.2237 15.4046 67.1843 15.4638C67.1646 15.5032 67.135 15.5426 67.0956 15.5821C66.7604 16.1539 66.4942 16.6369 66.297 17.0313C66.0998 17.4256 65.8632 17.9284 65.5872 18.5396C65.5478 18.6579 65.528 18.7269 65.528 18.7467C65.528 18.9044 65.6168 18.9833 65.7942 18.9833C65.9125 18.9833 66.0308 18.9537 66.1491 18.8945L66.4449 18.7762C66.9181 18.3425 67.411 17.9777 67.9237 17.6819C67.9434 17.6819 67.9533 17.6819 67.9533 17.6819C67.973 17.6622 67.9927 17.6524 68.0124 17.6524C68.0716 17.6524 68.111 17.6918 68.1307 17.7707C68.1504 17.8298 68.1307 17.8791 68.0716 17.9185C67.4998 18.234 66.9674 18.6382 66.4745 19.1312C66.4547 19.1706 66.435 19.21 66.4153 19.2495C66.3956 19.2889 66.366 19.3283 66.3266 19.3678C66.2674 19.4072 66.2083 19.4762 66.1491 19.5748C66.09 19.6734 66.0604 19.7325 66.0604 19.7522C66.0407 19.8114 66.0111 19.8311 65.9717 19.8114C65.952 19.7917 65.8928 19.8213 65.7942 19.9001C65.7745 19.9198 65.7548 19.9593 65.7351 20.0184C65.7351 20.0776 65.7252 20.1269 65.7055 20.1663C65.6661 20.2255 65.6266 20.2747 65.5872 20.3142C65.5478 20.3339 65.528 20.3536 65.528 20.3733C65.5083 20.4522 65.4689 20.5015 65.4097 20.5212C65.3703 20.5212 65.3309 20.5409 65.2914 20.5804C65.2717 20.5804 65.2619 20.5902 65.2619 20.6099C65.2619 20.7874 65.2421 20.8663 65.2027 20.8465C65.1633 20.8268 65.1238 20.8465 65.0844 20.9057C65.045 20.9846 64.9957 21.024 64.9365 21.024C64.8182 21.0634 64.7689 21.093 64.7886 21.1127C64.8281 21.1324 64.8577 21.1522 64.8774 21.1719C64.9168 21.1719 64.8872 21.2015 64.7886 21.2606C64.7492 21.2803 64.7098 21.3395 64.6703 21.4381C64.6309 21.5169 64.5915 21.5761 64.552 21.6155C64.4929 21.6549 64.4337 21.6845 64.3746 21.7042C64.3154 21.724 64.2661 21.7634 64.2267 21.8225C64.0493 22 63.9014 22.0887 63.7831 22.0887ZM70.3623 22.1183C70.3426 22.1183 70.313 22.0986 70.2736 22.0592C70.2341 22.0394 70.2046 22.0296 70.1848 22.0296C70.106 22.0493 70.037 22.0592 69.9778 22.0592C69.9187 22.0592 69.8595 22.0592 69.8004 22.0592C69.7806 22.0592 69.7609 22.0493 69.7412 22.0296C69.7412 22.0099 69.7313 22 69.7116 22C69.6919 22 69.682 22 69.682 22C69.7018 22.0197 69.7018 22.0296 69.682 22.0296C69.682 22.0296 69.6623 22.0197 69.6229 22C69.5835 21.9803 69.5539 21.9704 69.5342 21.9704L69.5046 21.9408C69.4652 21.9408 69.4356 21.931 69.4159 21.9113C69.4159 21.8916 69.406 21.8817 69.3863 21.8817L69.3567 21.9113L69.3271 21.8817C69.2877 21.862 69.2286 21.8423 69.1497 21.8225C69.0905 21.7831 69.0412 21.7535 69.0018 21.7338C68.9624 21.7338 68.9131 21.7042 68.8539 21.6451H68.7948C68.7553 21.5859 68.6863 21.5465 68.5877 21.5268C68.5877 21.5071 68.5779 21.4874 68.5582 21.4676H68.5286C68.4892 21.4085 68.4596 21.3888 68.4399 21.4085C68.4201 21.3691 68.3906 21.3395 68.3511 21.3198C68.3314 21.2803 68.3018 21.2507 68.2624 21.231C68.2624 21.1522 68.2427 21.1127 68.2033 21.1127C68.2033 21.0733 68.1638 21.0141 68.085 20.9353C68.0258 20.8564 67.9864 20.7874 67.9667 20.7282L67.9371 20.6987C67.8582 20.6198 67.7991 20.4916 67.7596 20.3142C67.7399 20.2353 67.7202 20.2057 67.7005 20.2255C67.7005 20.2452 67.6906 20.1959 67.6709 20.0776C67.6709 20.0579 67.6709 20.0283 67.6709 19.9888C67.6906 19.9297 67.6906 19.8903 67.6709 19.8705C67.6709 19.8508 67.661 19.841 67.6413 19.841C67.6413 19.8213 67.6413 19.8015 67.6413 19.7818C67.6216 19.7621 67.6117 19.7522 67.6117 19.7522C67.6315 19.7325 67.6413 19.7227 67.6413 19.7227C67.6413 19.6832 67.6315 19.6635 67.6117 19.6635C67.6117 19.6438 67.6117 19.6241 67.6117 19.6044V19.5452C67.6117 19.4466 67.6315 19.3776 67.6709 19.3382C67.6709 19.2987 67.6808 19.2692 67.7005 19.2495C67.7202 19.2297 67.73 19.21 67.73 19.1903C67.73 19.1509 67.7498 19.1312 67.7892 19.1312C67.8286 19.1312 67.8484 19.1213 67.8484 19.1016C67.8484 19.0621 67.8582 19.0424 67.8779 19.0424C67.9174 19.0227 67.9469 19.003 67.9667 18.9833C67.9667 18.9636 67.9765 18.9438 67.9962 18.9241C68.0357 18.9044 68.0554 18.8847 68.0554 18.865C68.154 18.8058 68.2624 18.7762 68.3807 18.7762C68.6173 18.7762 68.7356 18.8354 68.7356 18.9537C68.7356 18.9931 68.6765 19.0621 68.5582 19.1607C68.5385 19.2199 68.5286 19.2593 68.5286 19.279C68.5483 19.279 68.5385 19.2987 68.499 19.3382C68.5187 19.3973 68.5286 19.4762 68.5286 19.5748C68.5089 19.5748 68.499 19.6044 68.499 19.6635C68.5187 19.7029 68.5286 19.7227 68.5286 19.7227C68.5286 19.7424 68.5385 19.8015 68.5582 19.9001C68.5976 19.9987 68.6272 20.0579 68.6469 20.0776C68.6469 20.0776 68.6666 20.1269 68.706 20.2255C68.7455 20.3043 68.7652 20.3536 68.7652 20.3733V20.4325C68.8046 20.4916 68.8244 20.5311 68.8244 20.5508C68.8441 20.5508 68.9229 20.5902 69.061 20.6691C69.0807 20.6888 69.1201 20.6987 69.1793 20.6987C69.2778 20.7578 69.3469 20.8071 69.3863 20.8465C69.4454 20.886 69.5835 20.9254 69.8004 20.9648C69.8792 20.9846 69.9088 21.0043 69.8891 21.024C69.8891 21.024 69.9285 21.024 70.0074 21.024C70.0074 21.024 70.0074 21.0339 70.0074 21.0536C70.0074 21.0536 70.0172 21.0536 70.037 21.0536C70.0764 21.0339 70.1158 21.0339 70.1553 21.0536C70.1947 21.0536 70.2341 21.0437 70.2736 21.024H70.3919C70.5299 21.024 70.6778 21.0043 70.8355 20.9648L71.2791 20.8465C71.4172 20.8268 71.5453 20.7874 71.6636 20.7282C71.7819 20.6691 71.8904 20.6099 71.989 20.5508C72.0087 20.5508 72.0678 20.5212 72.1664 20.4621C72.265 20.3832 72.3833 20.3043 72.5213 20.2255C72.5016 20.1663 72.4917 20.0874 72.4917 19.9888C72.4917 19.9297 72.5213 19.9001 72.5805 19.9001C72.6396 19.8804 72.6791 19.8508 72.6988 19.8114C72.6396 19.772 72.5608 19.7522 72.4622 19.7522C72.3833 19.7522 72.3537 19.7227 72.3734 19.6635C72.2946 19.2297 72.1763 18.8354 72.0185 18.4805C71.8805 18.1256 71.7129 17.7312 71.5157 17.2975C71.496 17.2383 71.4566 17.1397 71.3974 17.0017C71.3383 16.8637 71.2989 16.7552 71.2791 16.6764C71.2791 16.6566 71.2989 16.6566 71.3383 16.6764C71.3777 16.6764 71.3876 16.6665 71.3679 16.6468C71.3481 16.5482 71.3284 16.4496 71.3087 16.351C71.3087 16.2524 71.2989 16.1637 71.2791 16.0848C71.2594 16.0454 71.2791 16.0158 71.3383 15.9961C71.3974 15.9764 71.4172 15.9468 71.3974 15.9074C71.3777 15.868 71.3383 15.8581 71.2791 15.8778C71.22 15.8975 71.1806 15.8877 71.1608 15.8482L71.0721 15.4933C71.0721 15.3947 71.0524 15.3356 71.013 15.3159C70.9932 15.2962 71.013 15.2567 71.0721 15.1976C71.1115 15.1779 71.1313 15.1483 71.1313 15.1088C71.1313 15.0497 71.1411 15.0103 71.1608 14.9905C71.2594 14.9314 71.2989 14.8624 71.2791 14.7835C71.2594 14.6849 71.2791 14.5962 71.3383 14.5173C71.3974 14.4385 71.4467 14.3695 71.4862 14.3103C71.5256 14.2314 71.5848 14.1821 71.6636 14.1624C71.7228 14.123 71.7425 14.1328 71.7228 14.192C71.7031 14.2512 71.7031 14.2807 71.7228 14.2807C71.8214 14.2807 71.8608 14.2314 71.8411 14.1328C71.8214 14.0343 71.8509 13.9455 71.9298 13.8667C72.0678 13.7484 72.2749 13.6498 72.5509 13.5709C72.8269 13.492 73.034 13.4427 73.172 13.423C73.2114 13.423 73.241 13.423 73.2607 13.423C73.3001 13.4033 73.3297 13.3935 73.3494 13.3935C73.448 13.3935 73.5466 13.4033 73.6452 13.423C73.7635 13.4427 73.8719 13.4625 73.9705 13.4822C74.0494 13.5019 74.1677 13.5808 74.3254 13.7188C74.4832 13.8371 74.6015 13.8667 74.6804 13.8075C74.8578 13.6498 75.0451 13.5118 75.2423 13.3935C75.4592 13.2752 75.5972 13.2259 75.6564 13.2456C75.8141 13.2653 75.9521 13.3146 76.0704 13.3935C76.1887 13.4526 76.2281 13.6498 76.1887 13.985C76.169 14.1033 76.1197 14.2019 76.0408 14.2807C75.9817 14.3399 75.9225 14.4187 75.8634 14.5173L75.6564 14.8131C75.5775 14.9511 75.4789 15.0891 75.3606 15.2272C75.262 15.3652 75.1733 15.4539 75.0944 15.4933C75.0155 15.5328 74.9367 15.6018 74.8578 15.7004C74.7987 15.7792 74.7198 15.8581 74.6212 15.937C74.5226 16.0158 74.4142 16.075 74.2959 16.1144C74.1973 16.1341 74.1283 16.1539 74.0888 16.1736C74.0297 16.1933 73.941 16.2032 73.8227 16.2032C73.7241 16.1834 73.6945 16.144 73.7339 16.0848C73.7734 16.0651 73.7832 16.0454 73.7635 16.0257C73.7438 15.9863 73.7339 15.9567 73.7339 15.937C73.7339 15.8975 73.7536 15.868 73.7931 15.8482C73.8522 15.8285 73.8917 15.7989 73.9114 15.7595C73.9311 15.7398 73.9804 15.6708 74.0593 15.5525C74.1578 15.4342 74.1973 15.3652 74.1776 15.3455C74.1776 15.2863 74.1973 15.237 74.2367 15.1976C74.2367 15.1581 74.2367 15.1286 74.2367 15.1088C74.2367 15.0694 74.2564 15.0398 74.2959 15.0201C74.3747 15.0004 74.4142 14.9708 74.4142 14.9314V14.5765C74.4142 14.4976 74.4043 14.4187 74.3846 14.3399C74.3846 14.261 74.3649 14.192 74.3254 14.1328C74.1677 13.9357 73.9114 13.8371 73.5565 13.8371C73.3001 13.8371 73.0537 13.8962 72.8171 14.0145C72.5608 14.1328 72.3439 14.33 72.1664 14.6061C72.0284 14.8032 71.9594 15.0103 71.9594 15.2272C71.9594 15.3849 71.989 15.5426 72.0481 15.7004C72.127 15.8581 72.196 16.006 72.2551 16.144C72.3143 16.282 72.3932 16.4496 72.4917 16.6468C72.61 16.844 72.6988 17.0017 72.7579 17.12C72.8565 17.2777 72.965 17.4651 73.0833 17.6819C73.2016 17.8791 73.2903 18.0664 73.3494 18.2439C73.3692 18.2636 73.3494 18.2833 73.2903 18.303C73.2509 18.303 73.241 18.3227 73.2607 18.3622C73.2804 18.4016 73.31 18.4213 73.3494 18.4213C73.3889 18.4213 73.4185 18.4411 73.4382 18.4805C73.4776 18.5396 73.4776 18.5889 73.4382 18.6284C73.4185 18.6678 73.4185 18.7269 73.4382 18.8058C73.4382 18.8255 73.4579 18.8453 73.4973 18.865C73.5368 18.8847 73.5565 18.9044 73.5565 18.9241C73.6551 19.1804 73.7044 19.3875 73.7044 19.5452C73.8818 19.4466 74.079 19.3283 74.2959 19.1903C74.5128 19.0523 74.6311 18.9241 74.6508 18.8058C74.6705 18.7664 74.7001 18.7565 74.7395 18.7762C74.7987 18.7762 74.8282 18.796 74.8282 18.8354C74.8085 18.9734 74.6409 19.1607 74.3254 19.3973C74.0297 19.6339 73.8029 19.8015 73.6452 19.9001C73.6649 19.9198 73.6551 19.9691 73.6156 20.048C73.5762 20.1269 73.5663 20.186 73.586 20.2255C73.586 20.2452 73.5762 20.2747 73.5565 20.3142C73.5368 20.3339 73.517 20.3635 73.4973 20.4029C73.4973 20.4818 73.4776 20.5409 73.4382 20.5804V20.6395L73.3494 20.6987C73.3297 20.7184 73.3001 20.7677 73.2607 20.8465C73.241 20.9057 73.2114 20.955 73.172 20.9944H73.0833C73.0438 21.0339 73.0241 21.0832 73.0241 21.1423C72.9847 21.2015 72.8959 21.2705 72.7579 21.3493C72.6199 21.4085 72.5312 21.4676 72.4917 21.5268C72.4917 21.5268 72.4819 21.5268 72.4622 21.5268C72.4425 21.5268 72.4129 21.5465 72.3734 21.5859H72.2847C72.265 21.5859 72.2453 21.6057 72.2256 21.6451C72.2058 21.6648 72.1861 21.6845 72.1664 21.7042C72.1073 21.7042 72.0777 21.724 72.0777 21.7634C71.9988 21.7634 71.9397 21.7733 71.9002 21.793L71.6045 21.8521C71.5256 21.931 71.4566 21.9704 71.3974 21.9704L71.3679 21.9408C71.3284 21.9803 71.2989 22 71.2791 22H71.1608C71.1411 22 71.1214 22.0099 71.1017 22.0296C71.082 22.0493 71.0622 22.0592 71.0425 22.0592H70.9834C70.9637 22.0592 70.9439 22.0592 70.9242 22.0592C70.9242 22.0789 70.9045 22.0887 70.8651 22.0887C70.8059 22.0887 70.7172 22.0887 70.5989 22.0887C70.5003 22.0887 70.4214 22.0986 70.3623 22.1183ZM70.0665 21.8521C70.0665 21.8521 70.0862 21.8521 70.1257 21.8521C70.1848 21.8324 70.2243 21.8225 70.244 21.8225C70.3426 21.8225 70.4313 21.8324 70.5102 21.8521C70.589 21.8521 70.6679 21.8521 70.7468 21.8521C70.7862 21.8521 70.8059 21.8324 70.8059 21.793H70.8651C70.9242 21.7338 70.9538 21.724 70.9538 21.7634C70.9735 21.8028 71.0031 21.8028 71.0425 21.7634C71.082 21.7634 71.1017 21.7535 71.1017 21.7338L71.22 21.6747C71.2397 21.6747 71.2496 21.6747 71.2496 21.6747C71.2496 21.6549 71.2594 21.6451 71.2791 21.6451H71.3383C71.3777 21.6451 71.4172 21.6254 71.4566 21.5859C71.496 21.5465 71.5157 21.5268 71.5157 21.5268C71.5157 21.5268 71.5453 21.4972 71.6045 21.4381C71.6045 21.4381 71.6143 21.4381 71.634 21.4381C71.6538 21.4183 71.6735 21.4085 71.6932 21.4085C71.7326 21.3691 71.7721 21.3493 71.8115 21.3493C71.8115 21.3296 71.8312 21.3099 71.8707 21.2902C71.9101 21.2507 71.9298 21.231 71.9298 21.231C71.9495 21.2113 71.9692 21.2015 71.989 21.2015C72.0284 21.1817 72.0481 21.162 72.0481 21.1423C72.0875 21.1423 72.1664 21.0733 72.2847 20.9353C72.403 20.7973 72.4819 20.6297 72.5213 20.4325C72.5213 20.3931 72.4622 20.4226 72.3439 20.5212C72.2256 20.6001 72.1664 20.6395 72.1664 20.6395C72.1073 20.6592 72.0481 20.6987 71.989 20.7578C71.9298 20.7973 71.8805 20.817 71.8411 20.817C71.8214 20.817 71.7918 20.8367 71.7524 20.8761C71.7326 20.8958 71.7129 20.9057 71.6932 20.9057C71.6735 20.9057 71.6636 20.9156 71.6636 20.9353C71.6636 20.9353 71.6439 20.9254 71.6045 20.9057C71.5848 20.9451 71.5256 20.9846 71.427 21.024C71.3284 21.0634 71.2594 21.0832 71.22 21.0832H71.1313L71.1017 21.1127C71.1017 21.1127 71.0918 21.1226 71.0721 21.1423C71.0524 21.1423 71.0327 21.1423 71.013 21.1423L70.8059 21.1719H70.7764C70.7566 21.1719 70.7369 21.1817 70.7172 21.2015C70.6383 21.2015 70.5496 21.2113 70.451 21.231C70.3524 21.2507 70.2933 21.2606 70.2736 21.2606H70.244C70.244 21.2409 70.2341 21.231 70.2144 21.231V21.2606H70.0665C70.0074 21.2606 69.9384 21.2507 69.8595 21.231C69.8004 21.1916 69.7511 21.1719 69.7116 21.1719C69.6919 21.1719 69.682 21.1817 69.682 21.2015C69.682 21.2015 69.6722 21.2015 69.6525 21.2015H69.5933C69.5736 21.2015 69.5637 21.1916 69.5637 21.1719H69.4159C69.4159 21.1127 69.3961 21.1029 69.3567 21.1423H69.3271C69.2483 21.1423 69.1793 21.1127 69.1201 21.0536C69.0807 20.9944 69.0117 20.9648 68.9131 20.9648L68.8244 20.8761C68.8244 20.8958 68.8145 20.9156 68.7948 20.9353C68.7948 20.9353 68.7948 20.9451 68.7948 20.9648C68.7948 20.9648 68.8046 20.9846 68.8244 21.024C68.8638 21.0437 68.8835 21.0634 68.8835 21.0832L68.9427 21.2015L69.061 21.3493L69.1201 21.4085C69.1398 21.4282 69.1497 21.4381 69.1497 21.4381C69.1694 21.4381 69.1891 21.4578 69.2088 21.4972C69.2483 21.4972 69.268 21.5268 69.268 21.5859C69.6032 21.7634 69.8694 21.8521 70.0665 21.8521ZM75.5517 23.0647C75.5122 22.9464 75.4925 22.8281 75.4925 22.7098C75.4925 22.6507 75.5024 22.5915 75.5221 22.5324C75.5221 22.4929 75.532 22.4436 75.5517 22.3845C75.5714 22.3253 75.6207 22.1676 75.6996 21.9113C75.7981 21.6549 75.8869 21.3888 75.9657 21.1127C76.0643 20.8367 76.1333 20.6789 76.1728 20.6395C76.1728 20.6395 76.2319 20.4916 76.3502 20.1959C76.4882 19.8804 76.6361 19.5551 76.7939 19.2199C76.9516 18.865 77.0699 18.6382 77.1488 18.5396C77.2474 18.3227 77.3952 18.0566 77.5924 17.7411C77.8093 17.4059 78.0163 17.0116 78.2135 16.5581V16.4102C78.2135 16.351 78.2135 16.3017 78.2135 16.2623C78.2332 16.2032 78.2529 16.144 78.2726 16.0848C78.3515 15.9271 78.4205 15.8187 78.4797 15.7595C78.5585 15.7004 78.6374 15.5919 78.7163 15.4342C78.7163 15.3947 78.7163 15.3553 78.7163 15.3159C78.736 15.2764 78.7557 15.237 78.7754 15.1976C78.736 15.237 78.7261 15.2074 78.7459 15.1088C78.7064 15.1088 78.7459 15.0103 78.8642 14.8131C78.943 14.6356 79.0022 14.5371 79.0416 14.5173H79.0712C79.1501 14.399 79.2191 14.3004 79.2782 14.2216C79.3374 14.123 79.3571 14.0638 79.3374 14.0441V13.985C79.3374 13.8469 79.3768 13.7188 79.4557 13.6005C79.5543 13.4822 79.643 13.354 79.7219 13.216C79.781 13.1371 79.8303 13.0977 79.8697 13.0977C79.9092 13.0977 79.9289 13.1076 79.9289 13.1273C79.9486 13.1273 79.9683 13.1273 79.988 13.1273C80.0472 13.1273 80.0768 13.078 80.0768 12.9794C80.0768 12.94 80.0669 12.8907 80.0472 12.8315C80.0472 12.7724 80.0373 12.7034 80.0176 12.6245C80.0373 12.5259 80.1162 12.447 80.2542 12.3879L80.343 12.3583C80.4415 11.9442 80.5598 11.6682 80.6979 11.5302C80.7373 11.4907 80.7767 11.4513 80.8162 11.4119C80.8556 11.3724 80.895 11.333 80.9345 11.2936C81.1711 11.0373 81.3485 10.7612 81.4668 10.4655C81.5063 10.3866 81.5556 10.3274 81.6147 10.288C81.6936 10.2288 81.7626 10.1598 81.8217 10.081C81.8612 10.0218 81.871 9.96267 81.8513 9.90351C81.8513 9.82465 81.8612 9.75564 81.8809 9.69648C81.9795 9.53875 82.0485 9.45002 82.0879 9.4303C82.1274 9.41059 82.1668 9.39087 82.2062 9.37115C82.2654 9.33172 82.364 9.24299 82.502 9.10497C82.5611 9.00638 82.6203 8.9078 82.6794 8.80921C82.7583 8.71063 82.8372 8.61204 82.916 8.51345C83.0343 8.37543 83.1625 8.27685 83.3005 8.2177C83.4385 8.15854 83.5766 8.06982 83.7146 7.95151C83.754 7.91208 83.7737 7.85293 83.7737 7.77406C83.7737 7.67547 83.7935 7.60646 83.8329 7.56703C84.523 7.01495 85.2624 6.55159 86.0511 6.17697C86.8595 5.80234 87.4806 5.61503 87.9143 5.61503C88.0721 5.61503 88.22 5.62489 88.358 5.6446C88.5157 5.66432 88.6636 5.6939 88.8016 5.73333H88.8608C88.9594 5.73333 89.0579 5.75305 89.1565 5.79248C89.2551 5.83192 89.3438 5.87135 89.4227 5.91079C89.5016 5.91079 89.6002 5.9305 89.7185 5.96994C89.8171 6.00937 89.8762 6.06852 89.8959 6.14739C89.9156 6.22626 89.8959 6.28541 89.8368 6.32485C89.8171 6.34456 89.7875 6.34456 89.748 6.32485C89.7086 6.30513 89.6692 6.29527 89.6297 6.29527C89.5903 6.29527 89.5509 6.27555 89.5114 6.23612C89.472 6.19669 89.4326 6.16711 89.3931 6.14739C89.3143 6.14739 89.2255 6.15725 89.127 6.17697C89.0481 6.19669 88.9594 6.20654 88.8608 6.20654H88.772C88.634 6.20654 88.5354 6.18683 88.4763 6.14739C88.4369 6.08824 88.3383 6.07838 88.1805 6.11782C88.1608 6.11782 88.1017 6.12768 88.0031 6.14739C87.9045 6.16711 87.8355 6.17697 87.796 6.17697C87.0862 6.35442 86.4651 6.65018 85.9328 7.06424C85.4004 7.45859 84.9272 7.90222 84.5131 8.39515C84.1188 8.88808 83.7343 9.36129 83.3597 9.81479C83.1822 10.1697 83.0048 10.4556 82.8273 10.6725C82.8076 10.6922 82.7879 10.6823 82.7682 10.6429C82.7484 10.6035 82.7287 10.6035 82.709 10.6429C82.6499 10.7021 82.6006 10.8006 82.5611 10.9387C82.5414 11.057 82.502 11.1556 82.4428 11.2344C82.4231 11.2541 82.4034 11.2443 82.3837 11.2048C82.364 11.1654 82.3344 11.1654 82.295 11.2048C82.2752 11.2246 82.2457 11.3034 82.2062 11.4415C82.1865 11.5598 82.1569 11.6386 82.1175 11.6781C81.8809 11.9935 81.6246 12.2992 81.3485 12.5949C81.0725 12.8907 80.7964 13.2357 80.5204 13.6301C80.1261 14.2413 79.7514 14.8427 79.3965 15.4342C79.0416 16.0257 78.667 16.6764 78.2726 17.3862C78.1346 17.6228 78.0262 17.8397 77.9473 18.0368C77.8882 18.2143 77.8192 18.3819 77.7403 18.5396C77.6417 18.7762 77.5924 18.9438 77.5924 19.0424C77.5924 19.1804 77.6811 19.21 77.8586 19.1312C77.9375 19.0917 78.0459 18.9931 78.1839 18.8354C78.3417 18.6579 78.4501 18.5594 78.5093 18.5396C78.529 18.5199 78.5585 18.5101 78.598 18.5101C78.6769 18.5101 78.7163 18.5396 78.7163 18.5988C78.7163 18.6777 78.667 18.7467 78.5684 18.8058C78.4895 18.8453 78.4402 18.8945 78.4205 18.9537C78.4008 19.0128 78.3515 19.0917 78.2726 19.1903C78.2135 19.2297 78.1741 19.2889 78.1543 19.3678C78.1346 19.4466 78.1149 19.4959 78.0952 19.5156C78.0755 19.5551 78.0656 19.6142 78.0656 19.6931C78.0656 19.7522 78.0163 19.8213 77.9177 19.9001C77.898 19.9198 77.8783 19.9593 77.8586 20.0184C77.8586 20.0776 77.8487 20.1269 77.829 20.1663C77.8093 20.2255 77.7699 20.2747 77.7107 20.3142C77.6713 20.3339 77.6516 20.3536 77.6516 20.3733C77.6318 20.4522 77.5924 20.5015 77.5333 20.5212C77.4938 20.5212 77.4544 20.5409 77.415 20.5804C77.3952 20.6001 77.3952 20.6297 77.415 20.6691C77.4347 20.7085 77.4248 20.748 77.3854 20.7874L77.0896 21.4085C77.0699 21.4479 77.0403 21.4874 77.0009 21.5268C76.9812 21.5662 76.9516 21.5958 76.9122 21.6155C76.8924 21.6155 76.853 21.6057 76.7939 21.5859C76.7544 21.5662 76.7347 21.5761 76.7347 21.6155C76.715 21.6352 76.715 21.6944 76.7347 21.793C76.7741 21.8718 76.7643 21.931 76.7051 21.9704C76.646 22.0099 76.5868 22.0887 76.5277 22.207C76.4882 22.3451 76.4488 22.4338 76.4094 22.4732C76.3305 22.5521 76.2615 22.6014 76.2023 22.6211C76.1432 22.6605 76.084 22.7197 76.0249 22.7985C76.0052 22.8183 75.9362 22.8971 75.8179 23.0352C75.6996 23.1929 75.6108 23.2027 75.5517 23.0647ZM84.2174 22.4732C84.0202 22.4732 83.8723 22.4338 83.7737 22.3549C83.7343 22.3352 83.685 22.3056 83.6259 22.2662C83.5864 22.2267 83.547 22.207 83.5076 22.207H83.4484C83.4287 22.207 83.3991 22.1775 83.3597 22.1183C83.3202 22.0789 83.2808 22.0493 83.2414 22.0296C83.2217 22.0296 83.1527 21.9901 83.0343 21.9113C82.916 21.8127 82.8372 21.7535 82.7977 21.7338C82.778 21.7141 82.7583 21.6944 82.7386 21.6747C82.7386 21.6352 82.7287 21.6155 82.709 21.6155H82.6499C82.6499 21.6155 82.6499 21.5958 82.6499 21.5564C82.5907 21.4775 82.5316 21.4085 82.4724 21.3493C82.4133 21.2902 82.3738 21.2212 82.3541 21.1423L82.295 21.1719C82.2752 21.1324 82.2457 21.093 82.2062 21.0536C82.1865 20.9944 82.1569 20.955 82.1175 20.9353C82.1175 20.8958 82.0583 20.8071 81.94 20.6691C81.8415 20.5311 81.7724 20.4522 81.733 20.4325C81.733 20.3733 81.7133 20.324 81.6739 20.2846C81.6344 20.2255 81.595 20.1762 81.5556 20.1367C81.5556 20.0776 81.5556 20.048 81.5556 20.048C81.5161 19.9494 81.457 19.8705 81.3781 19.8114C81.319 19.7325 81.2697 19.6537 81.2302 19.5748C81.1908 19.4959 81.1612 19.4269 81.1415 19.3678C81.1415 19.3086 81.1415 19.2692 81.1415 19.2495C81.1021 19.1903 81.0133 19.0917 80.8753 18.9537L80.8457 18.9241C80.8457 18.8847 80.8359 18.8354 80.8162 18.7762C80.7964 18.7171 80.7767 18.6678 80.757 18.6284C80.6979 18.5889 80.6486 18.5199 80.6091 18.4213C80.5894 18.3227 80.5598 18.2439 80.5204 18.1847V18.0664L80.2838 17.6819C80.2641 17.6425 80.2542 17.6031 80.2542 17.5636C80.2542 17.5242 80.2345 17.4848 80.1951 17.4453C80.0965 17.4256 80.0866 17.3467 80.1655 17.2087C80.1063 17.0707 80.0472 17.0017 79.988 17.0017C79.9486 17.0017 79.9092 17.0313 79.8697 17.0904C79.8303 17.1299 79.8007 17.1594 79.781 17.1792C79.7613 17.1792 79.7317 17.2284 79.6923 17.327C79.6529 17.4059 79.6233 17.4552 79.6036 17.4749C79.5838 17.5932 79.5247 17.6819 79.4261 17.7411C79.3472 17.8002 79.2881 17.8791 79.2486 17.9777C79.1106 18.2735 78.9726 18.4016 78.8346 18.3622C78.8149 18.3622 78.805 18.3425 78.805 18.303C78.805 18.2833 78.805 18.2537 78.805 18.2143C78.805 18.1552 78.8247 18.0861 78.8642 18.0073L78.9825 17.7707C79.0219 17.7312 79.0613 17.6918 79.1008 17.6524C79.1599 17.5932 79.2092 17.5439 79.2486 17.5045C79.4261 17.2876 79.5641 17.1003 79.6627 16.9425C79.7613 16.7651 79.9683 16.5778 80.2838 16.3806C80.3824 16.3215 80.4514 16.2623 80.4908 16.2032C80.6091 16.1834 80.6979 16.0947 80.757 15.937L80.8162 15.9665C80.8359 15.9271 80.8556 15.9074 80.8753 15.9074C80.9148 15.9074 80.9443 15.8975 80.964 15.8778C81.2401 15.6609 81.4865 15.4835 81.7034 15.3455C81.94 15.1877 82.1964 15.0103 82.4724 14.8131C82.4724 14.8131 82.5316 14.7539 82.6499 14.6356C82.7682 14.5173 82.847 14.4483 82.8865 14.4286C82.9062 14.4089 82.9555 14.399 83.0343 14.399C83.0738 14.3793 83.1329 14.3399 83.2118 14.2807C83.2907 14.2216 83.34 14.1821 83.3597 14.1624C83.3991 14.1624 83.4385 14.1526 83.478 14.1328C83.5174 14.1131 83.547 14.1033 83.5667 14.1033C83.7047 13.9258 83.8822 13.8174 84.0991 13.7779C84.0991 13.7582 84.0991 13.7484 84.0991 13.7484C84.1188 13.7286 84.1287 13.7089 84.1287 13.6892H84.1878C84.2075 13.6892 84.2272 13.6794 84.247 13.6596C84.2667 13.6399 84.2864 13.6301 84.3061 13.6301C84.3455 13.6103 84.3948 13.5906 84.454 13.5709C84.5329 13.5315 84.5723 13.492 84.5723 13.4526C84.5723 13.4329 84.592 13.4427 84.6314 13.4822C84.6512 13.4822 84.7103 13.4723 84.8089 13.4526C84.9272 13.4329 84.9962 13.4132 85.0159 13.3935L85.0455 13.423L85.223 13.3047L85.5187 13.2456C85.5779 13.2259 85.6567 13.2061 85.7553 13.1864C85.8736 13.1667 85.9623 13.1667 86.0215 13.1864C86.0215 13.1864 86.0314 13.1963 86.0511 13.216C86.1694 13.216 86.199 13.3047 86.1398 13.4822C86.0806 13.6596 85.9919 13.8272 85.8736 13.985C85.7553 14.1427 85.6666 14.2117 85.6074 14.192C85.6074 14.192 85.5976 14.1821 85.5779 14.1624C85.5581 14.1624 85.499 14.1821 85.4004 14.2216C85.3018 14.2413 85.2328 14.2512 85.1934 14.2512C85.1737 14.2314 85.1539 14.2216 85.1342 14.2216C85.1145 14.2413 85.0849 14.2807 85.0455 14.3399C85.0258 14.3793 84.9863 14.4187 84.9272 14.4582C84.9075 14.4779 84.7596 14.5075 84.4836 14.5469C84.2075 14.5863 84.0498 14.5962 84.0103 14.5765H83.9808C83.9216 14.5765 83.7442 14.6455 83.4484 14.7835C83.1724 14.9018 82.9949 14.9807 82.916 15.0201C82.8766 15.0398 82.8372 15.0497 82.7977 15.0497C82.7583 15.03 82.7189 15.0398 82.6794 15.0793C82.6203 15.099 82.5611 15.1286 82.502 15.168C82.4625 15.2074 82.4133 15.2469 82.3541 15.2863C82.2161 15.4046 81.9696 15.5525 81.6147 15.7299C81.2795 15.9074 81.0528 16.1046 80.9345 16.3215C80.8753 16.4003 80.8655 16.4693 80.9049 16.5285C80.964 16.5876 80.9838 16.6271 80.964 16.6468L82.2062 18.865C82.2457 18.9044 82.2851 18.9636 82.3245 19.0424C82.3837 19.1213 82.4231 19.1804 82.4428 19.2199C82.4823 19.2396 82.5118 19.2692 82.5316 19.3086C82.5513 19.348 82.5809 19.3875 82.6203 19.4269C82.6597 19.5452 82.7386 19.6537 82.8569 19.7522C82.9752 19.8508 83.0245 19.9494 83.0048 20.048L83.1527 20.1663C83.1724 20.1663 83.1822 20.186 83.1822 20.2255C83.2019 20.2452 83.2315 20.255 83.271 20.255C83.271 20.2747 83.3005 20.3339 83.3597 20.4325C83.4385 20.5311 83.4878 20.6001 83.5076 20.6395L83.5371 20.6099C83.5963 20.7085 83.6653 20.8071 83.7442 20.9057C83.8428 20.9846 83.9315 21.0634 84.0103 21.1423L84.1287 21.2015C84.1681 21.2212 84.2075 21.2606 84.247 21.3198C84.2864 21.3592 84.316 21.3789 84.3357 21.3789H84.3653C84.4441 21.3789 84.4934 21.3986 84.5131 21.4381C84.5526 21.4578 84.6019 21.4676 84.661 21.4676C84.6807 21.4874 84.6906 21.5071 84.6906 21.5268C84.7103 21.5268 84.73 21.5366 84.7497 21.5564C84.7695 21.5564 84.7793 21.5564 84.7793 21.5564C84.799 21.5366 84.8188 21.5268 84.8385 21.5268C84.8779 21.5268 84.8878 21.5366 84.868 21.5564C84.868 21.5564 84.8779 21.5564 84.8976 21.5564H84.9568C85.0751 21.5564 85.223 21.5366 85.4004 21.4972C85.5976 21.4381 85.706 21.3691 85.7257 21.2902C85.7652 21.2902 85.7948 21.2606 85.8145 21.2015C85.8933 21.162 85.9328 21.1324 85.9328 21.1127C85.9328 21.0733 85.9426 21.0339 85.9623 20.9944L86.0511 20.9353C86.0905 20.8367 86.1102 20.6888 86.1102 20.4916C86.1299 20.2945 86.1497 20.1564 86.1694 20.0776C86.2088 19.9198 86.2187 19.8015 86.199 19.7227C86.1792 19.6438 86.1792 19.5354 86.199 19.3973C86.199 19.3579 86.1891 19.3283 86.1694 19.3086C86.1497 19.2692 86.1398 19.2396 86.1398 19.2199V19.1607C86.1398 19.0819 86.1201 19.0128 86.0807 18.9537C86.0609 18.8748 86.0314 18.796 85.9919 18.7171L85.9032 18.4213C85.9032 18.4016 85.8933 18.3918 85.8736 18.3918C85.8736 18.372 85.8736 18.3622 85.8736 18.3622C85.8736 18.2636 85.9131 18.2143 85.9919 18.2143C86.0511 18.2143 86.1299 18.2932 86.2285 18.4509L86.4356 18.8354C86.5144 18.8551 86.544 18.8748 86.5243 18.8945C86.5046 18.9143 86.5046 18.9636 86.5243 19.0424L86.5834 19.1607V19.1903C86.5834 19.2495 86.613 19.3283 86.6722 19.4269C86.7313 19.5058 86.7708 19.5649 86.7905 19.6044C86.8102 19.6832 86.8299 19.7621 86.8496 19.841C86.8891 19.9198 86.8891 20.0086 86.8496 20.1072L86.82 20.3733C86.8003 20.3931 86.7806 20.4226 86.7609 20.4621C86.7412 20.5015 86.7017 20.5311 86.6426 20.5508C86.6032 20.5705 86.5539 20.5606 86.4947 20.5212C86.4356 20.4818 86.406 20.4818 86.406 20.5212C86.3665 20.5606 86.3665 20.6001 86.406 20.6395C86.3665 20.6789 86.337 20.7282 86.3173 20.7874C86.3173 20.8465 86.3074 20.9057 86.2877 20.9648C86.2877 20.9846 86.2778 21.0043 86.2581 21.024C86.2384 21.024 86.2285 21.0339 86.2285 21.0536C86.2088 21.0733 86.199 21.1029 86.199 21.1423C86.199 21.162 86.1891 21.1817 86.1694 21.2015C86.1497 21.2409 86.1004 21.3395 86.0215 21.4972C85.9426 21.6549 85.8638 21.8127 85.7849 21.9704C85.706 22.1084 85.6567 22.1873 85.637 22.207L85.3413 22.3253C85.3215 22.3253 85.3117 22.3056 85.3117 22.2662C85.2722 22.2859 85.2328 22.3056 85.1934 22.3253C85.1539 22.3648 85.1145 22.3943 85.0751 22.4141H84.8976C84.8779 22.4141 84.8483 22.4239 84.8089 22.4436C84.7892 22.4634 84.7596 22.4634 84.7202 22.4436H84.6906L84.6314 22.4732C84.592 22.4338 84.5723 22.4141 84.5723 22.4141C84.5526 22.3943 84.5033 22.3943 84.4244 22.4141C84.3653 22.4535 84.2962 22.4732 84.2174 22.4732ZM87.0841 22.0887C86.9658 22.0887 86.9067 22.0197 86.9067 21.8817C86.9067 21.7831 86.9363 21.6648 86.9954 21.5268C87.1532 21.1916 87.3306 20.7184 87.5278 20.1072C87.7447 19.4959 88.0109 18.9734 88.3263 18.5396C88.4249 18.3227 88.5728 18.0566 88.77 17.7411C88.9869 17.4059 89.1939 17.0116 89.3911 16.5581V16.4102C89.3911 16.351 89.3911 16.3017 89.3911 16.2623C89.4108 16.2032 89.4305 16.144 89.4502 16.0848C89.5291 15.9271 89.5981 15.8187 89.6572 15.7595C89.7361 15.7004 89.815 15.5919 89.8938 15.4342C89.8938 15.3947 89.8938 15.3553 89.8938 15.3159C89.9136 15.2764 89.9333 15.237 89.953 15.1976C89.9136 15.237 89.9037 15.2074 89.9234 15.1088C89.884 15.1088 89.9234 15.0103 90.0417 14.8131C90.1206 14.6356 90.1797 14.5371 90.2192 14.5173H90.2488C90.3276 14.399 90.3966 14.3004 90.4558 14.2216C90.5149 14.123 90.5347 14.0638 90.5149 14.0441V13.985C90.5149 13.8469 90.5544 13.7188 90.6332 13.6005C90.7318 13.4822 90.8206 13.354 90.8994 13.216C90.9586 13.1371 91.0079 13.0977 91.0473 13.0977C91.0867 13.0977 91.1065 13.1076 91.1065 13.1273C91.1262 13.1273 91.1459 13.1273 91.1656 13.1273C91.2248 13.1273 91.2543 13.078 91.2543 12.9794C91.2543 12.94 91.2445 12.8907 91.2248 12.8315C91.2248 12.7724 91.2149 12.7034 91.1952 12.6245C91.2149 12.5259 91.2938 12.447 91.4318 12.3879L91.5205 12.3583C91.6191 11.9442 91.7374 11.6682 91.8754 11.5302C91.9149 11.4907 91.9543 11.4513 91.9937 11.4119C92.0332 11.3724 92.0726 11.333 92.112 11.2936C92.3486 11.0373 92.5261 10.7612 92.6444 10.4655C92.6838 10.3866 92.7331 10.3274 92.7923 10.288C92.8711 10.2288 92.9401 10.1598 92.9993 10.081C93.0387 10.0218 93.0486 9.96267 93.0289 9.90351C93.0289 9.82465 93.0387 9.75564 93.0585 9.69648C93.157 9.53875 93.226 9.45002 93.2655 9.4303C93.3049 9.41059 93.3444 9.39087 93.3838 9.37115C93.4429 9.33172 93.5415 9.24299 93.6795 9.10497C93.7387 9.00638 93.7978 8.9078 93.857 8.80921C93.9359 8.71063 94.0147 8.61204 94.0936 8.51345C94.2119 8.37543 94.3401 8.27685 94.4781 8.2177C94.6161 8.15854 94.7541 8.06982 94.8921 7.95151C94.9316 7.91208 94.9513 7.85293 94.9513 7.77406C94.9513 7.67547 94.971 7.60646 95.0105 7.56703C95.7006 7.01495 96.4399 6.55159 97.2286 6.17697C98.037 5.80234 98.6581 5.61503 99.0919 5.61503C99.2496 5.61503 99.3975 5.62489 99.5355 5.6446C99.6933 5.66432 99.8412 5.6939 99.9792 5.73333H100.038C100.137 5.73333 100.236 5.75305 100.334 5.79248C100.433 5.83192 100.521 5.87135 100.6 5.91079C100.679 5.91079 100.778 5.9305 100.896 5.96994C100.995 6.00937 101.054 6.06852 101.073 6.14739C101.093 6.22626 101.073 6.28541 101.014 6.32485C100.995 6.34456 100.965 6.34456 100.926 6.32485C100.886 6.30513 100.847 6.29527 100.807 6.29527C100.768 6.29527 100.728 6.27555 100.689 6.23612C100.65 6.19669 100.61 6.16711 100.571 6.14739C100.492 6.14739 100.403 6.15725 100.305 6.17697C100.226 6.19669 100.137 6.20654 100.038 6.20654H99.9496C99.8116 6.20654 99.713 6.18683 99.6538 6.14739C99.6144 6.08824 99.5158 6.07838 99.3581 6.11782C99.3384 6.11782 99.2792 6.12768 99.1806 6.14739C99.082 6.16711 99.013 6.17697 98.9736 6.17697C98.2638 6.35442 97.6427 6.65018 97.1103 7.06424C96.578 7.45859 96.1048 7.90222 95.6907 8.39515C95.2964 8.88808 94.9119 9.36129 94.5372 9.81479C94.3598 10.1697 94.1823 10.4556 94.0049 10.6725C93.9852 10.6922 93.9654 10.6823 93.9457 10.6429C93.926 10.6035 93.9063 10.6035 93.8866 10.6429C93.8274 10.7021 93.7781 10.8006 93.7387 10.9387C93.719 11.057 93.6795 11.1556 93.6204 11.2344C93.6007 11.2541 93.581 11.2443 93.5612 11.2048C93.5415 11.1654 93.5119 11.1654 93.4725 11.2048C93.4528 11.2246 93.4232 11.3034 93.3838 11.4415C93.3641 11.5598 93.3345 11.6386 93.2951 11.6781C93.0585 11.9935 92.8021 12.2992 92.5261 12.5949C92.25 12.8907 91.974 13.2357 91.698 13.6301C91.3036 14.2413 90.929 14.8427 90.5741 15.4342C90.2192 16.0257 89.8446 16.6764 89.4502 17.3862C89.3122 17.6228 89.2037 17.8397 89.1249 18.0368C89.0657 18.2143 88.9967 18.3819 88.9178 18.5396C88.8784 18.5988 88.8587 18.6777 88.8587 18.7762C88.8587 18.9143 88.9376 18.9833 89.0953 18.9833C89.2136 18.9833 89.3319 18.9537 89.4502 18.8945L89.746 18.7762C90.2192 18.3425 90.7121 17.9777 91.2248 17.6819C91.2445 17.6819 91.2543 17.6819 91.2543 17.6819C91.274 17.6622 91.2938 17.6524 91.3135 17.6524C91.3726 17.6524 91.4121 17.6918 91.4318 17.7707C91.4515 17.8298 91.4318 17.8791 91.3726 17.9185C90.8008 18.234 90.2685 18.6382 89.7755 19.1312C89.7558 19.1706 89.7361 19.21 89.7164 19.2495C89.6967 19.2889 89.6671 19.3283 89.6277 19.3678C89.5882 19.4072 89.5291 19.4762 89.4502 19.5748C89.3911 19.6734 89.3615 19.7325 89.3615 19.7522C89.3418 19.8114 89.3122 19.8311 89.2728 19.8114C89.253 19.7917 89.1939 19.8213 89.0953 19.9001C89.0756 19.9198 89.0559 19.9593 89.0361 20.0184C89.0361 20.0776 89.0263 20.1269 89.0066 20.1663C88.9869 20.2255 88.9474 20.2747 88.8883 20.3142C88.8488 20.3339 88.8291 20.3536 88.8291 20.3733C88.8094 20.4522 88.77 20.5015 88.7108 20.5212C88.6714 20.5212 88.6319 20.5409 88.5925 20.5804C88.5728 20.6001 88.5728 20.6297 88.5925 20.6691C88.6122 20.7085 88.6024 20.748 88.5629 20.7874C88.5432 20.8465 88.5235 20.8761 88.5038 20.8761C88.4841 20.8564 88.4545 20.8663 88.4151 20.9057C88.3362 20.9846 88.277 21.024 88.2376 21.024C88.1193 21.0634 88.07 21.093 88.0897 21.1127C88.1292 21.1324 88.1587 21.1522 88.1785 21.1719C88.2179 21.1719 88.1883 21.2015 88.0897 21.2606C88.0503 21.2803 88.0109 21.3395 87.9714 21.4381C87.932 21.5169 87.8926 21.5761 87.8531 21.6155C87.794 21.6549 87.7348 21.6845 87.6757 21.7042C87.6362 21.724 87.5869 21.7634 87.5278 21.8225C87.3503 22 87.2025 22.0887 87.0841 22.0887ZM89.1205 30.3995C88.8247 30.3995 88.5684 30.3699 88.3515 30.3108C88.2135 30.2714 88.0755 30.2221 87.9375 30.1629C87.7994 30.1038 87.6516 30.0347 87.4938 29.9559L87.4347 29.9263C87.3558 29.8869 87.2671 29.8277 87.1685 29.7488C87.0699 29.6897 86.9713 29.6404 86.8727 29.601C86.7939 29.5813 86.6854 29.5221 86.5474 29.4235C86.4488 29.3446 86.3897 29.2658 86.3699 29.1869C86.3305 29.108 86.3404 29.0587 86.3995 29.039C86.4192 29.039 86.4488 29.0489 86.4882 29.0686C86.5277 29.108 86.5671 29.1376 86.6065 29.1573C86.646 29.1771 86.6953 29.2066 86.7544 29.2461C86.7939 29.2855 86.8333 29.3151 86.8727 29.3348C86.9713 29.3742 87.06 29.4038 87.1389 29.4235C87.1981 29.463 87.2671 29.5024 87.3459 29.5418C87.5234 29.6207 87.6516 29.67 87.7304 29.6897C87.8093 29.7094 87.9276 29.7291 88.0853 29.7488L88.4698 29.7784C89.5148 29.8573 90.3922 29.6601 91.1021 29.1869C91.7922 28.7137 92.3738 28.2109 92.847 27.6785C92.9062 27.5208 92.9653 27.3729 93.0245 27.2349C93.1034 27.1166 93.1822 27.018 93.2611 26.9392C93.2808 26.9194 93.3005 26.9293 93.3202 26.9687C93.3597 27.0279 93.3892 27.0476 93.409 27.0279C93.4484 26.9687 93.4681 26.8701 93.4681 26.7321C93.4878 26.6138 93.5273 26.5251 93.5864 26.4659C93.6061 26.4462 93.6259 26.4659 93.6456 26.5251C93.685 26.5842 93.7146 26.604 93.7343 26.5842C93.7737 26.5448 93.7935 26.4659 93.7935 26.3476C93.8132 26.2293 93.8329 26.1603 93.8526 26.1406C94.0498 25.8646 94.2272 25.6082 94.385 25.3716C94.5427 25.135 94.7202 24.8491 94.9173 24.5139C95.0948 24.2379 95.3018 23.883 95.5384 23.4492C95.7947 23.0352 96.0215 22.6507 96.2187 22.2958C96.4158 21.9803 96.5637 21.6451 96.6623 21.2902L96.751 20.9648C96.8496 20.5902 97.0468 20.0776 97.3425 19.4269C97.658 18.7565 98.0228 18.0368 98.4368 17.2679C98.8706 16.4792 99.3044 15.7299 99.7382 15.0201C99.8368 14.9018 99.9156 14.8032 99.9748 14.7244C100.034 14.6455 100.123 14.5469 100.241 14.4286C100.28 14.4089 100.359 14.3202 100.478 14.1624C100.596 14.0047 100.714 13.8469 100.832 13.6892C100.971 13.5118 101.049 13.4132 101.069 13.3935C101.641 12.9202 102.272 12.5456 102.962 12.2696C103.672 11.9738 104.224 11.8259 104.618 11.8259C104.776 11.8259 104.884 11.8259 104.944 11.8259C105.022 11.8062 105.121 11.8062 105.239 11.8259L105.446 11.8555C105.525 11.8752 105.594 11.9048 105.653 11.9442C105.732 11.964 105.811 11.9837 105.89 12.0034C105.929 12.0231 105.979 12.0527 106.038 12.0921C106.097 12.1316 106.146 12.1611 106.186 12.1808C106.265 12.24 106.304 12.309 106.304 12.3879C106.304 12.447 106.284 12.4865 106.245 12.5062C106.225 12.5259 106.196 12.5259 106.156 12.5062C106.136 12.4667 106.107 12.447 106.067 12.447C106.028 12.447 105.989 12.4372 105.949 12.4175C105.91 12.3977 105.87 12.378 105.831 12.3583C105.752 12.3583 105.683 12.3484 105.624 12.3287C105.565 12.309 105.505 12.2893 105.446 12.2696C105.367 12.2499 105.298 12.24 105.239 12.24C105.18 12.24 105.131 12.24 105.091 12.24C105.013 12.24 104.934 12.2499 104.855 12.2696C104.835 12.2696 104.776 12.2794 104.677 12.2992C104.598 12.2992 104.539 12.309 104.5 12.3287C103.593 12.5456 102.853 12.9597 102.282 13.5709C101.71 14.1821 101.197 14.8032 100.744 15.4342C100.665 15.5328 100.556 15.6609 100.418 15.8187C100.3 15.9567 100.221 16.0454 100.182 16.0848C100.162 16.1243 100.073 16.2623 99.9156 16.4989C99.7579 16.7158 99.6002 16.9425 99.4424 17.1792C99.3044 17.396 99.2255 17.5143 99.2058 17.5341C99.1861 17.5538 99.1467 17.5636 99.0875 17.5636C99.0481 17.5636 99.0185 17.5735 98.9988 17.5932L98.289 19.0128L97.9932 19.5748L97.6087 20.3438C97.4116 20.7184 97.2341 21.1029 97.0764 21.4972C96.9186 21.8718 96.7905 22.2366 96.6919 22.5915C96.6327 22.7295 96.6031 22.8873 96.6031 23.0647C96.6031 23.2422 96.5539 23.3506 96.4553 23.3901C96.3961 23.4098 96.3468 23.3802 96.3074 23.3013C96.268 23.2225 96.2482 23.2915 96.2482 23.5084C96.2877 23.5281 96.2877 23.5675 96.2482 23.6267C96.2285 23.6858 96.2187 23.7351 96.2187 23.7745C96.2384 23.814 96.2482 23.8731 96.2482 23.952C96.2482 24.0506 96.2088 24.1393 96.1299 24.2182C96.0708 24.2971 96.0215 24.3858 95.9821 24.4844C95.9426 24.5632 95.8933 24.5829 95.8342 24.5435C95.775 24.5238 95.7257 24.5139 95.6863 24.5139L95.6567 24.5731C95.6567 24.6322 95.6863 24.7703 95.7455 24.9872C95.7455 25.1055 95.6863 25.1646 95.568 25.1646H95.4793C95.4596 25.5787 95.3807 25.8251 95.2427 25.904L95.0356 26.0519L94.9765 26.1702C94.8582 26.4068 94.7695 26.5152 94.7103 26.4955L94.6216 26.7321C94.6019 26.7913 94.5526 26.8406 94.4737 26.88C94.4145 26.9194 94.3653 26.9687 94.3258 27.0279C94.3258 27.0476 94.316 27.0575 94.2962 27.0575C94.2962 27.0575 94.2962 27.0673 94.2962 27.087C94.2962 27.3236 94.1878 27.5602 93.9709 27.7968C93.7737 28.0335 93.5667 28.2405 93.3498 28.4179C93.3104 28.4968 93.2611 28.5757 93.2019 28.6545C93.1428 28.7334 93.0738 28.8024 92.9949 28.8616C92.8963 28.9602 92.778 29.0193 92.64 29.039C92.5217 29.0587 92.4034 29.1179 92.2851 29.2165C92.2457 29.2362 92.2259 29.2855 92.2259 29.3644C92.2457 29.4629 92.2358 29.5221 92.1964 29.5418C91.7626 29.8179 91.2598 30.0249 90.688 30.1629C90.1162 30.3206 89.5937 30.3995 89.1205 30.3995ZM94.0596 21.9704C93.8033 21.9704 93.5864 21.8225 93.409 21.5268C93.2315 21.2113 93.1822 20.9747 93.2611 20.817C93.2808 20.7775 93.3005 20.7282 93.3202 20.6691C93.3597 20.5902 93.3892 20.5409 93.409 20.5212C93.4484 20.4818 93.4681 20.4719 93.4681 20.4916C93.4878 20.4916 93.5076 20.4818 93.5273 20.4621C93.547 20.4226 93.5371 20.3931 93.4977 20.3733C93.478 20.3339 93.478 20.3043 93.4977 20.2846L93.8526 18.9537C93.8526 18.934 93.8625 18.9143 93.8822 18.8945C93.9019 18.8748 93.9118 18.8551 93.9118 18.8354L93.9709 18.303C93.9709 18.2833 93.9906 18.2833 94.0301 18.303C94.0695 18.303 94.0991 18.2932 94.1188 18.2735C94.1582 18.1749 94.1484 18.1256 94.0892 18.1256C94.0301 18.1256 94.0005 18.1157 94.0005 18.096C94.0202 17.9383 94.0498 17.8298 94.0892 17.7707C94.1286 17.7115 94.1582 17.6129 94.1779 17.4749L94.2667 16.9721C94.2667 16.9918 94.2765 17.0707 94.2962 17.2087C94.316 17.327 94.3653 17.3862 94.4441 17.3862C94.5427 17.3862 94.5723 17.3665 94.5328 17.327C94.4934 17.2876 94.4638 17.2383 94.4441 17.1792C94.4244 17.0806 94.4441 17.0017 94.5033 16.9425C94.523 16.9228 94.5624 16.9623 94.6216 17.0608C94.6807 17.1397 94.7103 17.1792 94.7103 17.1792C94.73 17.1397 94.7399 17.0904 94.7399 17.0313C94.7399 16.9721 94.7202 16.9327 94.6807 16.913C94.6019 16.8538 94.5131 16.8144 94.4145 16.7947C94.3357 16.7552 94.2962 16.7158 94.2962 16.6764C94.2962 16.6172 94.3061 16.5581 94.3258 16.4989C94.3258 16.4792 94.3357 16.4595 94.3554 16.4398C94.3751 16.42 94.385 16.4003 94.385 16.3806C94.385 16.3412 94.3653 16.3215 94.3258 16.3215C94.3061 16.3215 94.2962 16.3116 94.2962 16.2919V15.9961C94.2962 15.937 94.2962 15.8778 94.2962 15.8187C94.2962 15.7398 94.2765 15.6609 94.2371 15.5821C94.1779 15.444 94.0892 15.3257 93.9709 15.2272C93.8526 15.1286 93.7047 15.0793 93.5273 15.0793H93.4977L93.4385 15.1384H93.3794C93.2414 15.237 93.0836 15.3356 92.9062 15.4342C92.7484 15.5131 92.6104 15.5722 92.4921 15.6116L92.433 15.6412C92.4132 15.6609 92.3837 15.6708 92.3442 15.6708C92.2654 15.6708 92.2062 15.6314 92.1668 15.5525C92.1471 15.4736 92.1766 15.4243 92.2555 15.4046C92.4132 15.306 92.5808 15.2272 92.7583 15.168C92.9358 15.1088 93.0935 15.0201 93.2315 14.9018C93.2709 14.8032 93.3695 14.7244 93.5273 14.6652C93.5667 14.6258 93.5963 14.6159 93.616 14.6356C93.6357 14.6554 93.6554 14.6652 93.6751 14.6652C93.7737 14.6652 93.8329 14.6356 93.8526 14.5765C93.892 14.4976 93.9216 14.4779 93.9413 14.5173H94.2371C94.6709 14.5173 95.0061 14.6948 95.2427 15.0497C95.4793 15.3849 95.5877 15.8384 95.568 16.4102C95.568 16.4299 95.5384 16.4595 95.4793 16.4989C95.4398 16.5186 95.4201 16.5482 95.4201 16.5876C95.4201 16.6074 95.4398 16.6172 95.4793 16.6172C95.5384 16.5975 95.568 16.6074 95.568 16.6468V16.7651C95.568 16.9425 95.5581 17.0411 95.5384 17.0608C95.499 17.4946 95.4004 17.9481 95.2427 18.4213C95.1046 18.8748 94.9568 19.3185 94.799 19.7522C94.7399 19.7522 94.7004 19.7818 94.6807 19.841C94.661 19.9001 94.6314 19.9297 94.592 19.9297C94.5328 19.9297 94.4737 19.91 94.4145 19.8705C94.3751 19.8114 94.3554 19.8114 94.3554 19.8705C94.3554 19.9494 94.3948 20.0086 94.4737 20.048C94.5526 20.0677 94.6019 20.0874 94.6216 20.1072C94.6413 20.1269 94.6807 20.1367 94.7399 20.1367C94.799 20.1367 94.8582 20.117 94.9173 20.0776C94.9765 20.0381 95.0356 19.9987 95.0948 19.9593C95.1934 19.8804 95.3215 19.772 95.4793 19.6339C95.6567 19.4762 95.8145 19.3382 95.9525 19.2199C96.0905 19.0819 96.1595 19.0128 96.1595 19.0128C96.1201 18.9734 96.1497 18.934 96.2482 18.8945L96.3961 18.7171C96.4158 18.6185 96.475 18.5101 96.5736 18.3918C96.6722 18.2735 96.7609 18.2044 96.8398 18.1847L96.8989 18.0664C96.9186 18.0664 96.9383 18.0763 96.9581 18.096C96.9778 18.096 96.9975 18.0861 97.0172 18.0664C97.0369 18.0664 97.0369 18.0467 97.0172 18.0073C97.0172 17.9678 97.0271 17.9481 97.0468 17.9481L97.1947 17.7411C97.2341 17.6228 97.2735 17.5538 97.313 17.5341C97.2933 17.4749 97.313 17.4355 97.3721 17.4158C97.4116 17.4158 97.451 17.4256 97.4904 17.4453C97.5496 17.4453 97.5791 17.4059 97.5791 17.327C97.5791 17.2876 97.589 17.2383 97.6087 17.1792C97.6284 17.1003 97.6777 17.0707 97.7566 17.0904L97.7862 17.0313C97.7862 17.0116 97.8256 16.982 97.9045 16.9425C97.9834 16.8834 98.0326 16.844 98.0524 16.8242L98.2002 16.6172C98.2594 16.5186 98.3185 16.4693 98.3777 16.4693C98.4368 16.4496 98.4763 16.4398 98.496 16.4398C98.5157 16.4398 98.5256 16.4595 98.5256 16.4989C98.5256 16.6369 98.4566 16.7749 98.3185 16.913L98.0819 17.1792C98.0622 17.1989 98.0425 17.2087 98.0228 17.2087C98.0031 17.2087 97.9834 17.2284 97.9636 17.2679C97.9439 17.2876 97.9242 17.3172 97.9045 17.3566C97.8848 17.396 97.865 17.4355 97.8453 17.4749L97.6087 17.7411L96.0116 19.6339C95.8342 19.8311 95.7159 19.9593 95.6567 20.0184C95.6173 20.0776 95.5581 20.1663 95.4793 20.2846C95.4596 20.3043 95.43 20.3043 95.3905 20.2846C95.3511 20.2649 95.3117 20.2747 95.2722 20.3142L95.2427 20.4916L95.0948 20.6395C95.0751 20.6592 95.0849 20.6691 95.1244 20.6691C95.1835 20.6691 95.2032 20.6789 95.1835 20.6987L94.7695 21.4085C94.5526 21.7831 94.316 21.9704 94.0596 21.9704Z" fill="#0D0D0C"/>
</svg>
